/* XPM */
static char *da87361f5b864165c180b01a0c0b9ebcLhhNim8O9slHeWYB[] = {
/* columns rows colors chars-per-pixel */
"32 32 4 1 ",
"  c None",
". c red",
"X c #838383",
"o c white",
/* pixels */
"                                ",
"                                ",
"                                ",
"                                ",
"               oo               ",
"               oo               ",
"             oooooo             ",
"            ooXXXXoo            ",
"           ooXXXXXXoo           ",
"           oXXXXXXXXo           ",
"           oooXXXXooo           ",
"           oXXooooXXo           ",
"           oooXXXXooo           ",
"           o.ooooo..o           ",
"           o.o......o           ",
"           o.o......o           ",
"           o.o......o           ",
"           o.o......o           ",
"           o.o......o           ",
"           o.o......o           ",
"           o.o......o           ",
"           o.o......o           ",
"           o.o......o           ",
"           o.o......o           ",
"           o.o......o           ",
"            oo....oo            ",
"              oooo              ",
"                                ",
"                                ",
"                                ",
"                                ",
"                                "
};
