/* XPM */
static char *b3a8ed3075b244eca73c4ee661dcbb99T3DjN32Ow65AhmXq[] = {
/* columns rows colors chars-per-pixel */
"32 32 5 1 ",
"  c None",
". c black",
"X c red",
"o c #FFB4AE",
"O c white",
/* pixels */
"                                ",
"          OOOOOOOOOOOO          ",
"         OXXXXXXXXXXXXO         ",
"        OXXXXXXXXXXXXXXO        ",
"       OXXXXXXXXXXXXXXXXO       ",
"       OXXXXXXXXXXXXXXXXO       ",
"       OXXXXXXXXXXXXXXXXO       ",
"       OXXXXXXXXXXXXXXXXO       ",
"       OXXXXooooooooXXXXO       ",
"       OXXXXooooooooXXXXO       ",
"       OXXXX........XXXXO       ",
"      OOXXXX........XXXXOO      ",
"     OooooooooooooooooooooO     ",
"     Oo..oo...oooo...oo..oO     ",
"     Oo.oooooooooooooooo.oO     ",
"     Ooo.oo...oooo...oo.ooO     ",
"      Oooooo..oooo..oooooO      ",
"       Oooooooo..oooooooO       ",
"        OooooooooooooooO        ",
"         O..oo....oo..O         ",
"        O....oooooo....O        ",
"       O................O       ",
"      O..................O      ",
"      O..................O      ",
"       O................O       ",
"        O..............O        ",
"         O...OOOOOO...O         ",
"          OOOOOOOOOOOO          ",
"          OOOOOOOOOOOO          ",
"          OXXXOOOOXXXO          ",
"         OXXXXXOOXXXXXO         ",
"                                "
};
