/* XPM */
static char *_6dc77c00c8f45c3a35f31e829c57dc1TDMBKIvORoWYFKR1[] = {
/* columns rows colors chars-per-pixel */
"32 32 5 1 ",
"  c None",
". c black",
"X c red",
"o c #838383",
"O c white",
/* pixels */
"                                ",
"                                ",
"                                ",
"                                ",
"                                ",
"                                ",
"                                ",
"                                ",
"                                ",
"                                ",
"                                ",
"                                ",
"                                ",
"                                ",
"     OOOOO O   O OOOOO OOOOO    ",
"     O      O O    O     O      ",
"     O      O O    O     O      ",
"     OOOO    O     O     O      ",
"     O      O O    O     O      ",
"     O      O O    O     O      ",
"     OOOOO O   O OOOOO   O      ",
"  OO                        OO  ",
" OXXOOOOOOOOOOOOOOOOOOOOOOOOXXO ",
"  OXXXXXXXXXXXXXXXXXXXXXXXXXXO  ",
"   OOOOOOOOOOOOOOOOOOOOOOOOOO   ",
"      OoooO          OoooO      ",
"       OOO            OOO       ",
"      O...O          O...O      ",
"      O.O.O          O.O.O      ",
"      O...O          O...O      ",
"       OOO            OOO       ",
"                                "
};
