/* XPM */
static char *_417a5a88a974900f3ed573627b5d5a15j33to0D8PEx7YVr[] = {
/* columns rows colors chars-per-pixel */
"32 32 2 1 ",
"  c None",
". c red",
/* pixels */
"................................",
"...........  ...    .....      .",
"...     .  ........  .. ........",
". .      .        ..............",
".  .      .       .........  . .",
".   .      ........... .  ......",
"..   ........ ..      . ........",
". .. ..........    .........  ..",
".......................  . .   .",
".   ............................",
"................................",
".............. .... . ..    ....",
".  ......................... . .",
".     ......... ....   ..    . .",
".   ...    . ..... ...   ..   ..",
"................................",
".... .    .      . ..... .. ....",
"..  ...  .       .   ......... .",
". ..  .....     .    ..  .......",
".   .  ..  ... .... .  ..  . ...",
"...  ...................... ....",
".. .......   ... ..... .........",
". ........................... ..",
"............     .. ......... ..",
"..  ..... . ... .    .  ... . ..",
"..  ... ..     ......... ..  ...",
"............... ..... ..........",
"..... . .   .............. .....",
"........  ...... ..   ....    ..",
"......... ...  ..  ...... ..   .",
". ... ..........................",
"................................"
};
