/* XPM */
static char *_f63448f16a34e90cac557823fecc57eDOpMYAMjLwPIE8Ds[] = {
/* columns rows colors chars-per-pixel */
"32 32 2 1 ",
"  c black",
". c white",
/* pixels */
"... ........................ ...",
"... ........................ ...",
"...  ......................  ...",
"...       ............       ...",
"...          ......          ...",
"...          ......          ...",
"...           ....           ...",
"...    . ..   ....   .. .    ...",
"...    ...    ....    ...    ...",
"...    ..   . .... .   ..    ...",
".........  .. .... ..  .........",
"........ ...  ....  ... ........",
"...........  ......  ...........",
"..........  ........  ..........",
".......... .......... ..........",
"..........            ..........",
"...........  ..  ..  ...........",
"................................",
"........  ............  ........",
"........  ............  ........",
".......  ..............  .......",
"...... .....   ..   ..... ......",
".........              .........",
"..........  ...  ...  ..........",
"... .......  ......  ....... ...",
"... .........  ..  ......... ...",
"...  .........    .........  ...",
".... ...................... ....",
".......  ..............  .......",
"... ....  ............  .... ...",
"...  ...   ..........   ...  ...",
"...         ........         ..."
};
